<mxfile host="app.diagrams.net" modified="2022-02-18T01:38:32.462Z" agent="5.0 (Windows NT 10.0; Win64; x64) AppleWebKit/537.36 (KHTML, like Gecko) Chrome/98.0.4758.102 Safari/537.36" etag="HrbUJYelkxqVa6h_M6Vf" version="16.5.6" type="github">
  <diagram id="prtHgNgQTEPvFCAcTncT" name="Page-1">
    <mxGraphModel dx="757" dy="517" grid="1" gridSize="10" guides="1" tooltips="1" connect="1" arrows="1" fold="1" page="1" pageScale="1" pageWidth="827" pageHeight="1169" background="none" math="0" shadow="1">
      <root>
        <mxCell id="0" />
        <mxCell id="1" parent="0" />
        <mxCell id="dNxyNK7c78bLwvsdeMH5-11" value="wha" style="swimlane;html=1;startSize=20;horizontal=1;containerType=tree;glass=0;fillColor=#B2C9AB;strokeColor=#788AA3;fontColor=#46495D;rounded=1;" parent="1" vertex="1">
          <mxGeometry x="90" y="60" width="710" height="430" as="geometry" />
        </mxCell>
        <UserObject label="Home Page" name="Tessa Miller" position="CFO" location="Office 1" email="me@example.com" placeholders="1" link="https://www.draw.io" id="dNxyNK7c78bLwvsdeMH5-12">
          <mxCell style="label;image=https://cdn3.iconfinder.com/data/icons/user-avatars-1/512/users-3-128.png;whiteSpace=wrap;html=1;glass=0;treeMoving=1;treeFolding=1;fillColor=#B2C9AB;strokeColor=#788AA3;fontColor=#46495D;rounded=1;" parent="dNxyNK7c78bLwvsdeMH5-11" vertex="1">
            <mxGeometry x="260" y="50" width="180" height="70" as="geometry" />
          </mxCell>
        </UserObject>
        <mxCell id="dNxyNK7c78bLwvsdeMH5-13" value="c" style="endArrow=blockThin;endFill=1;fontSize=11;edgeStyle=elbowEdgeStyle;elbow=vertical;strokeColor=#788AA3;fontColor=#46495D;curved=1;rounded=1;" parent="dNxyNK7c78bLwvsdeMH5-11" source="dNxyNK7c78bLwvsdeMH5-12" target="dNxyNK7c78bLwvsdeMH5-14" edge="1">
          <mxGeometry relative="1" as="geometry" />
        </mxCell>
        <UserObject label="Contact Page" name="Edward Morrison" position="Brand Manager" location="Office 2" email="me@example.com" placeholders="1" link="https://www.draw.io" id="dNxyNK7c78bLwvsdeMH5-14">
          <mxCell style="label;image=https://cdn3.iconfinder.com/data/icons/user-avatars-1/512/users-10-3-128.png;whiteSpace=wrap;html=1;glass=0;treeFolding=1;treeMoving=1;fillColor=#B2C9AB;strokeColor=#788AA3;fontColor=#46495D;rounded=1;" parent="dNxyNK7c78bLwvsdeMH5-11" vertex="1" collapsed="1">
            <mxGeometry x="40" y="180" width="180" height="80" as="geometry" />
          </mxCell>
        </UserObject>
        <mxCell id="dNxyNK7c78bLwvsdeMH5-17" value="" style="endArrow=blockThin;endFill=1;fontSize=11;edgeStyle=elbowEdgeStyle;elbow=vertical;strokeColor=#788AA3;fontColor=#46495D;curved=1;rounded=1;" parent="dNxyNK7c78bLwvsdeMH5-11" source="dNxyNK7c78bLwvsdeMH5-12" target="dNxyNK7c78bLwvsdeMH5-18" edge="1">
          <mxGeometry relative="1" as="geometry" />
        </mxCell>
        <UserObject label="About Page" name="Alison Donovan" position="System Admin" location="Office 3" email="me@example.com" placeholders="1" link="https://www.draw.io" id="dNxyNK7c78bLwvsdeMH5-18">
          <mxCell style="label;image=https://cdn3.iconfinder.com/data/icons/user-avatars-1/512/users-2-128.png;whiteSpace=wrap;html=1;glass=0;fillColor=#B2C9AB;strokeColor=#788AA3;fontColor=#46495D;rounded=1;" parent="dNxyNK7c78bLwvsdeMH5-11" vertex="1">
            <mxGeometry x="480" y="180" width="180" height="80" as="geometry" />
          </mxCell>
        </UserObject>
        <mxCell id="a57rna23Dj6VnsF5qEz1-4" value="Email" style="rounded=1;whiteSpace=wrap;html=1;fillColor=#d5e8d4;strokeColor=#82b366;" vertex="1" parent="dNxyNK7c78bLwvsdeMH5-11">
          <mxGeometry x="30" y="310" width="60" height="30" as="geometry" />
        </mxCell>
        <mxCell id="a57rna23Dj6VnsF5qEz1-10" value="" style="curved=1;endArrow=classic;html=1;rounded=1;entryX=0.167;entryY=0;entryDx=0;entryDy=0;entryPerimeter=0;exitX=0.328;exitY=1;exitDx=0;exitDy=0;exitPerimeter=0;" edge="1" parent="dNxyNK7c78bLwvsdeMH5-11" source="dNxyNK7c78bLwvsdeMH5-14" target="a57rna23Dj6VnsF5qEz1-4">
          <mxGeometry width="50" height="50" relative="1" as="geometry">
            <mxPoint x="30" y="230" as="sourcePoint" />
            <mxPoint x="40" y="300" as="targetPoint" />
            <Array as="points">
              <mxPoint x="90" y="290" />
              <mxPoint x="40" y="280" />
            </Array>
          </mxGeometry>
        </mxCell>
        <mxCell id="a57rna23Dj6VnsF5qEz1-11" value="social media" style="rounded=1;whiteSpace=wrap;html=1;fillColor=#d5e8d4;strokeColor=#82b366;" vertex="1" parent="dNxyNK7c78bLwvsdeMH5-11">
          <mxGeometry x="180" y="310" width="50" height="30" as="geometry" />
        </mxCell>
        <mxCell id="a57rna23Dj6VnsF5qEz1-12" value="" style="curved=1;endArrow=classic;html=1;rounded=1;exitX=0.661;exitY=0.996;exitDx=0;exitDy=0;exitPerimeter=0;entryX=0.75;entryY=0;entryDx=0;entryDy=0;" edge="1" parent="dNxyNK7c78bLwvsdeMH5-11" source="dNxyNK7c78bLwvsdeMH5-14" target="a57rna23Dj6VnsF5qEz1-11">
          <mxGeometry width="50" height="50" relative="1" as="geometry">
            <mxPoint x="130" y="262" as="sourcePoint" />
            <mxPoint x="190" y="300" as="targetPoint" />
            <Array as="points">
              <mxPoint x="170" y="290" />
              <mxPoint x="218" y="280" />
            </Array>
          </mxGeometry>
        </mxCell>
        <mxCell id="a57rna23Dj6VnsF5qEz1-14" value="pages to visit" style="rounded=1;whiteSpace=wrap;html=1;fillColor=#d5e8d4;strokeColor=#82b366;" vertex="1" parent="dNxyNK7c78bLwvsdeMH5-11">
          <mxGeometry x="470" y="310" width="70" height="40" as="geometry" />
        </mxCell>
        <mxCell id="a57rna23Dj6VnsF5qEz1-15" value="locations" style="rounded=1;whiteSpace=wrap;html=1;fillColor=#d5e8d4;strokeColor=#82b366;" vertex="1" parent="dNxyNK7c78bLwvsdeMH5-11">
          <mxGeometry x="610" y="310" width="60" height="30" as="geometry" />
        </mxCell>
        <mxCell id="a57rna23Dj6VnsF5qEz1-16" value="" style="curved=1;endArrow=classic;html=1;rounded=1;entryX=0.16;entryY=-0.098;entryDx=0;entryDy=0;entryPerimeter=0;exitX=0.357;exitY=0.996;exitDx=0;exitDy=0;exitPerimeter=0;" edge="1" parent="dNxyNK7c78bLwvsdeMH5-11" source="dNxyNK7c78bLwvsdeMH5-18" target="a57rna23Dj6VnsF5qEz1-14">
          <mxGeometry width="50" height="50" relative="1" as="geometry">
            <mxPoint x="460" y="230" as="sourcePoint" />
            <mxPoint x="480" y="300" as="targetPoint" />
            <Array as="points">
              <mxPoint x="540" y="290" />
              <mxPoint x="481" y="280" />
            </Array>
          </mxGeometry>
        </mxCell>
        <mxCell id="a57rna23Dj6VnsF5qEz1-17" value="" style="curved=1;endArrow=classic;html=1;rounded=1;exitX=0.597;exitY=0.996;exitDx=0;exitDy=0;exitPerimeter=0;entryX=0.611;entryY=-0.111;entryDx=0;entryDy=0;entryPerimeter=0;" edge="1" parent="dNxyNK7c78bLwvsdeMH5-11" source="dNxyNK7c78bLwvsdeMH5-18" target="a57rna23Dj6VnsF5qEz1-15">
          <mxGeometry width="50" height="50" relative="1" as="geometry">
            <mxPoint x="590" y="355" as="sourcePoint" />
            <mxPoint x="640" y="305" as="targetPoint" />
            <Array as="points">
              <mxPoint x="590" y="290" />
              <mxPoint x="640" y="280" />
            </Array>
          </mxGeometry>
        </mxCell>
      </root>
    </mxGraphModel>
  </diagram>
</mxfile>
